# xmcd CD database file
#
# Track frame offsets:
#	150
#	11339
#	22081
#	34102
#	44406
#	54028
#	66547
#	79595
#	89050
#	98198
#	113422
#	124665
#
# Disc length: 1790 seconds
#
# Revision: 0
# Processed by: cddbd v1.4PL0 Copyright (c) Steve Scherf et al.
# Submitted via: CDex 1.40Release
#
DISCID=9306fc0c
DTITLE=Olav Undeland - So Much Trouble
DYEAR=2003
DGENRE=Blues
TTITLE0=Candyman
TTITLE1=So Much Trouble
TTITLE2=Walking Blues
TTITLE3=Go On Home
TTITLE4=Dellah
TTITLE5=Crosstown
TTITLE6=Got The Blues
TTITLE7=Hellhound
TTITLE8=Honey B
TTITLE9=Kindhearted Woman
TTITLE10=Make Me A Pallet
TTITLE11=Lonesome Blues
EXTD=YEAR: 2003 ID3G: 0
EXTT0=
EXTT1=
EXTT2=
EXTT3=
EXTT4=
EXTT5=
EXTT6=
EXTT7=
EXTT8=
EXTT9=
EXTT10=
EXTT11=
PLAYORDER=
